<svg width="425" height="424" viewBox="0 0 425 424" fill="none" xmlns="http://www.w3.org/2000/svg">
<g clip-path="url(#clip0_11_14113)">
<path opacity="0.3" d="M375.738 362.171C367.01 371.136 358.754 376.918 352.229 381.485C275.541 435.179 184.797 419.527 165.511 415.704C137.032 410.059 81.9829 399.15 42.1839 353.48C-18.0286 284.384 -8.65253 175.527 38.052 103.668C46.5943 90.5235 91.7216 17.5704 183.443 5.87109C238.952 -1.20943 303.657 13.071 350.515 51.3778C448.872 131.788 441.871 294.231 375.738 362.171Z" fill="url(#paint0_linear_11_14113)"/>
<path d="M77.077 2.70208C63.344 40.5021 -9.18481 262.025 151.546 326.575C151.546 326.575 230.53 185.652 82.0411 0.766996C80.7423 -0.85119 77.9749 0.232704 77.077 2.70208Z" fill="url(#paint1_linear_11_14113)"/>
<path opacity="0.86" d="M85.555 37.0009C84.9446 48.965 84.7885 60.969 84.8329 72.9577C84.8941 84.9494 85.2154 96.9396 85.8028 108.916C86.9838 132.866 89.2051 156.774 92.8888 180.459C96.5955 204.126 101.723 227.621 109.366 250.308C111.295 255.969 113.351 261.589 115.634 267.114C117.921 272.636 120.39 278.082 123.078 283.414C128.476 294.06 134.817 304.242 142.351 313.466L142.356 313.472C142.714 313.91 142.65 314.556 142.211 314.916C141.773 315.274 141.128 315.21 140.77 314.77L140.767 314.767C133.153 305.369 126.784 295.04 121.38 284.273C118.689 278.881 116.223 273.382 113.942 267.809C111.665 262.235 109.62 256.572 107.703 250.869C100.109 228.022 95.0657 204.427 91.4462 180.683C87.8512 156.921 85.7248 132.962 84.6402 108.973C84.1017 96.9763 83.8294 84.9693 83.8171 72.9623C83.8217 60.9537 84.0282 48.9513 84.6891 36.9488C84.7029 36.71 84.9063 36.5263 85.1465 36.5385C85.3852 36.5523 85.5687 36.7559 85.5565 36.9963V37.0024L85.555 37.0009Z" fill="white"/>
<path d="M112.241 249.651C112.241 249.651 -16.9195 204.113 3.13605 40.7011C3.47108 37.9761 7.76673 36.4697 10.2236 38.2149C33.0847 54.4488 111.366 119.501 112.241 249.651Z" fill="url(#paint2_linear_11_14113)"/>
<path opacity="0.71" d="M25.7342 73.5303C31.9375 86.4344 38.1255 99.3447 44.2416 112.29C47.3012 118.763 50.3455 125.242 53.3301 131.748L57.8093 141.508C59.3008 144.761 60.7496 148.036 62.2212 151.298C68.065 164.369 73.944 177.426 79.5461 190.606C85.1895 203.766 90.7395 216.972 95.8873 230.341C95.9638 230.539 95.8643 230.759 95.6685 230.836C95.4758 230.909 95.2601 230.816 95.179 230.628L90.9675 220.756L86.6841 210.915C83.8004 204.366 80.952 197.803 78.0163 191.278L69.246 171.685L60.3992 152.125L51.531 132.573C48.5541 126.065 45.6429 119.528 42.7026 113.002C36.8282 99.9494 30.9646 86.8891 24.9938 73.8808C24.8989 73.6757 24.9892 73.4323 25.1942 73.3374C25.3961 73.244 25.6363 73.3312 25.7342 73.5318V73.5303Z" fill="white"/>
<path d="M22.7266 133.489L391.342 127.255C406.182 127.004 418.095 139.743 417.212 154.92L404.524 373.276C403.829 385.226 394.224 394.588 382.539 394.703L28.2109 398.21C19.459 398.297 12.2276 391.235 11.8942 382.276L3.41759 154.381C2.99843 143.103 11.7106 133.676 22.7266 133.49V133.489Z" fill="url(#paint3_linear_11_14113)"/>
<path d="M28.3776 139.052L387.372 133.121C401.825 132.883 413.426 145.001 412.567 159.443L400.211 367.187C399.535 378.558 390.18 387.463 378.8 387.573L33.7211 390.909C25.1972 390.992 18.1555 384.273 17.8312 375.748L9.57494 158.928C9.16649 148.198 17.6522 139.23 28.3806 139.052H28.3776Z" fill="url(#paint4_linear_11_14113)"/>
<path opacity="0.47" d="M35.5998 150.204L378.507 144.646C392.313 144.423 403.393 155.779 402.573 169.309L390.77 363.977C390.124 374.631 381.189 382.977 370.318 383.08L40.7017 386.206C32.5601 386.283 25.8337 379.987 25.5231 372.001L17.637 168.829C17.247 158.774 25.3518 150.37 35.5998 150.204Z" fill="white"/>
<path opacity="0.53" d="M136.784 169.396L36.2529 169.659C36.0442 169.66 35.8754 169.83 35.876 170.038L35.8974 178.22C35.8979 178.429 36.0676 178.597 36.2762 178.597L136.808 178.333C137.016 178.333 137.185 178.163 137.184 177.954L137.163 169.773C137.162 169.564 136.993 169.395 136.784 169.396Z" fill="white"/>
<path opacity="0.53" d="M200.228 178.36L165.413 178.452C165.213 178.452 165.051 178.29 165.049 178.091L165.028 169.879C165.028 169.678 165.19 169.516 165.389 169.515L200.204 169.423C200.404 169.423 200.566 169.585 200.568 169.784L200.589 177.996C200.589 178.196 200.427 178.359 200.228 178.36Z" fill="white"/>
<path opacity="0.53" d="M277.528 178.157L208.492 178.339C208.174 178.339 207.915 178.082 207.914 177.763L207.894 169.98C207.894 169.662 208.151 169.403 208.469 169.401L277.505 169.219C277.824 169.219 278.082 169.476 278.084 169.795L278.104 177.578C278.104 177.896 277.847 178.155 277.528 178.157Z" fill="white"/>
<path opacity="0.53" d="M62.365 194.237L36.3662 194.306C36.048 194.306 35.7895 194.049 35.788 193.731L35.7681 185.948C35.7681 185.629 36.0251 185.37 36.3433 185.369L62.342 185.3C62.6602 185.3 62.9188 185.557 62.9203 185.876L62.9402 193.659C62.9402 193.977 62.6832 194.236 62.365 194.237Z" fill="white"/>
<path opacity="0.53" d="M137.025 185.121L64.1205 185.312C63.9118 185.312 63.7431 185.482 63.7437 185.691L63.7651 193.872C63.7656 194.081 63.9352 194.25 64.1439 194.249L137.049 194.058C137.258 194.058 137.426 193.888 137.426 193.679L137.404 185.498C137.404 185.289 137.234 185.12 137.025 185.121Z" fill="white"/>
<path opacity="0.53" d="M200.554 194.083L165.739 194.175C165.539 194.175 165.376 194.012 165.375 193.813L165.354 185.602C165.354 185.401 165.516 185.239 165.715 185.237L200.529 185.145C200.73 185.145 200.892 185.308 200.894 185.507L200.915 193.718C200.915 193.919 200.753 194.081 200.554 194.083Z" fill="white"/>
<path opacity="0.53" d="M335.035 193.729L233.363 193.997C233.045 193.997 232.787 193.74 232.785 193.421L232.765 185.638C232.765 185.32 233.022 185.061 233.34 185.06L335.012 184.792C335.33 184.792 335.588 185.049 335.59 185.367L335.61 193.15C335.61 193.469 335.353 193.728 335.035 193.729Z" fill="white"/>
<path opacity="0.53" d="M62.3613 201.001L36.3626 201.069C36.0441 201.07 35.7866 201.329 35.7874 201.648L35.8078 209.431C35.8086 209.75 36.0675 210.007 36.386 210.006L62.3847 209.938C62.7032 209.937 62.9607 209.678 62.9599 209.36L62.9395 201.576C62.9387 201.258 62.6798 201 62.3613 201.001Z" fill="white"/>
<path opacity="0.53" d="M137.031 200.822L64.1264 201.013C63.9177 201.014 63.749 201.183 63.7495 201.392L63.7709 209.573C63.7715 209.782 63.9411 209.951 64.1498 209.95L137.055 209.759C137.263 209.759 137.432 209.589 137.432 209.38L137.41 201.199C137.41 200.99 137.24 200.821 137.031 200.822Z" fill="white"/>
<path opacity="0.53" d="M200.569 209.784L165.754 209.876C165.554 209.876 165.392 209.714 165.39 209.515L165.369 201.303C165.369 201.102 165.531 200.94 165.73 200.938L200.545 200.846C200.745 200.846 200.907 201.009 200.909 201.208L200.93 209.42C200.93 209.62 200.768 209.782 200.569 209.784Z" fill="white"/>
<path opacity="0.53" d="M378.82 209.316L245.987 209.666C245.669 209.666 245.41 209.409 245.409 209.09L245.389 201.307C245.389 200.989 245.646 200.73 245.964 200.729L378.797 200.378C379.115 200.378 379.374 200.635 379.376 200.954L379.395 208.737C379.395 209.055 379.138 209.314 378.82 209.316Z" fill="white"/>
<path opacity="0.53" d="M62.6465 225.661L36.6477 225.73C36.3295 225.73 36.071 225.473 36.0694 225.154L36.0496 217.371C36.0496 217.053 36.3066 216.794 36.6248 216.793L62.6235 216.724C62.9417 216.724 63.2003 216.981 63.2018 217.299L63.2217 225.083C63.2217 225.401 62.9647 225.66 62.6465 225.661Z" fill="white"/>
<path opacity="0.53" d="M137.487 225.481L64.5817 225.672C64.3737 225.672 64.2039 225.504 64.2023 225.295L64.1809 217.114C64.1809 216.906 64.3492 216.736 64.5572 216.734L137.462 216.543C137.67 216.543 137.84 216.711 137.842 216.92L137.863 225.101C137.863 225.309 137.695 225.479 137.487 225.481Z" fill="white"/>
<path opacity="0.53" d="M200.896 225.508L166.082 225.6C165.881 225.6 165.719 225.438 165.717 225.239L165.696 217.027C165.696 216.826 165.858 216.664 166.057 216.662L200.872 216.571C201.072 216.571 201.235 216.733 201.236 216.932L201.258 225.144C201.258 225.344 201.095 225.507 200.896 225.508Z" fill="white"/>
<path opacity="0.53" d="M379.567 225.037L246.734 225.387C246.415 225.387 246.157 225.13 246.155 224.812L246.135 217.028C246.135 216.71 246.393 216.451 246.711 216.45L379.544 216.099C379.862 216.099 380.121 216.356 380.122 216.675L380.142 224.458C380.142 224.776 379.885 225.035 379.567 225.037Z" fill="white"/>
<path opacity="0.53" d="M62.6067 241.978L36.6079 242.047C36.2897 242.047 36.0312 241.789 36.0297 241.471L36.0098 233.688C36.0098 233.369 36.2668 233.111 36.585 233.109L62.5837 233.04C62.9019 233.04 63.1605 233.297 63.162 233.616L63.1819 241.399C63.1819 241.717 62.9249 241.976 62.6067 241.978Z" fill="white"/>
<path opacity="0.53" d="M137.357 232.86L64.4521 233.051C64.2434 233.052 64.0747 233.221 64.0752 233.43L64.0966 241.612C64.0972 241.82 64.2668 241.989 64.4755 241.989L137.38 241.798C137.589 241.797 137.758 241.627 137.757 241.419L137.736 233.237C137.735 233.028 137.566 232.86 137.357 232.86Z" fill="white"/>
<path opacity="0.53" d="M200.832 241.825L166.017 241.917C165.817 241.917 165.655 241.754 165.653 241.555L165.632 233.343C165.632 233.143 165.794 232.981 165.993 232.979L200.808 232.887C201.008 232.887 201.17 233.049 201.172 233.248L201.193 241.46C201.193 241.661 201.031 241.823 200.832 241.825Z" fill="white"/>
<path opacity="0.53" d="M379.343 241.353L246.51 241.704C246.192 241.704 245.934 241.447 245.932 241.128L245.912 233.345C245.912 233.026 246.169 232.768 246.487 232.766L379.32 232.416C379.639 232.416 379.897 232.673 379.899 232.991L379.919 240.774C379.919 241.093 379.662 241.352 379.343 241.353Z" fill="white"/>
<path opacity="0.53" d="M62.8667 257.702L36.8679 257.771C36.5497 257.771 36.2912 257.514 36.2897 257.195L36.2698 249.412C36.2698 249.094 36.5268 248.835 36.845 248.833L62.8438 248.764C63.1619 248.764 63.4205 249.022 63.422 249.34L63.4419 257.123C63.4419 257.442 63.1849 257.7 62.8667 257.702Z" fill="white"/>
<path opacity="0.53" d="M137.785 248.585L64.8801 248.776C64.6714 248.776 64.5026 248.946 64.5032 249.155L64.5246 257.336C64.5251 257.545 64.6948 257.714 64.9034 257.713L137.808 257.522C138.017 257.522 138.186 257.352 138.185 257.143L138.164 248.962C138.163 248.753 137.994 248.584 137.785 248.585Z" fill="white"/>
<path opacity="0.53" d="M201.16 257.547L166.345 257.639C166.144 257.639 165.982 257.477 165.981 257.278L165.959 249.066C165.959 248.865 166.121 248.703 166.32 248.702L201.135 248.61C201.336 248.61 201.498 248.772 201.499 248.971L201.521 257.183C201.521 257.383 201.359 257.546 201.16 257.547Z" fill="white"/>
<path opacity="0.53" d="M289.635 257.315L208.698 257.527C208.38 257.527 208.122 257.27 208.12 256.952L208.1 249.169C208.1 248.85 208.357 248.591 208.676 248.59L289.612 248.377C289.93 248.377 290.189 248.634 290.19 248.953L290.21 256.736C290.21 257.054 289.953 257.313 289.635 257.315Z" fill="white"/>
<path opacity="0.53" d="M137.845 264.286L36.7626 264.55C36.5539 264.551 36.3852 264.721 36.3858 264.93L36.4072 273.111C36.4077 273.32 36.5773 273.488 36.786 273.488L137.868 273.223C138.077 273.223 138.245 273.053 138.245 272.844L138.224 264.663C138.223 264.454 138.053 264.285 137.845 264.286Z" fill="white"/>
<path opacity="0.53" d="M201.175 273.248L166.36 273.34C166.16 273.34 165.998 273.178 165.996 272.979L165.975 264.767C165.975 264.567 166.137 264.404 166.336 264.403L201.151 264.311C201.351 264.311 201.513 264.473 201.515 264.672L201.536 272.884C201.536 273.085 201.374 273.247 201.175 273.248Z" fill="white"/>
<path opacity="0.53" d="M328.432 272.913L227.241 273.18C226.923 273.18 226.664 272.922 226.663 272.604L226.643 264.821C226.643 264.502 226.9 264.244 227.218 264.242L328.409 263.976C328.727 263.976 328.986 264.233 328.988 264.551L329.007 272.334C329.007 272.653 328.75 272.912 328.432 272.913Z" fill="white"/>
<path opacity="0.53" d="M62.0974 280.191L37.1849 280.257C36.8664 280.257 36.6088 280.516 36.6097 280.835L36.63 288.618C36.6309 288.937 36.8897 289.195 37.2083 289.194L62.1208 289.129C62.4393 289.128 62.6969 288.869 62.696 288.55L62.6757 280.767C62.6748 280.448 62.4159 280.19 62.0974 280.191Z" fill="white"/>
<path opacity="0.53" d="M138.219 280.009L65.3141 280.2C65.1055 280.2 64.9367 280.37 64.9373 280.579L64.9587 288.76C64.9592 288.969 65.1288 289.138 65.3375 289.137L138.242 288.946C138.451 288.946 138.62 288.776 138.619 288.567L138.598 280.386C138.597 280.177 138.428 280.008 138.219 280.009Z" fill="white"/>
<path opacity="0.53" d="M201.501 288.971L166.686 289.063C166.485 289.063 166.323 288.901 166.322 288.702L166.3 280.49C166.3 280.289 166.462 280.127 166.661 280.125L201.476 280.033C201.677 280.033 201.839 280.196 201.84 280.395L201.862 288.607C201.862 288.807 201.7 288.969 201.501 288.971Z" fill="white"/>
<path opacity="0.53" d="M380.352 288.501L242.967 288.862C242.649 288.862 242.391 288.605 242.389 288.287L242.369 280.503C242.369 280.185 242.626 279.926 242.944 279.925L380.329 279.563C380.647 279.563 380.905 279.821 380.907 280.139L380.927 287.922C380.927 288.241 380.67 288.499 380.352 288.501Z" fill="white"/>
<path opacity="0.53" d="M62.7078 336.05L36.709 336.119C36.3908 336.119 36.1323 335.862 36.1307 335.543L36.1108 327.76C36.1108 327.442 36.3678 327.183 36.686 327.181L62.6848 327.112C63.003 327.112 63.2615 327.37 63.2631 327.688L63.283 335.471C63.283 335.79 63.026 336.048 62.7078 336.05Z" fill="white"/>
<path opacity="0.53" d="M137.661 326.934L64.7563 327.125C64.5476 327.126 64.3789 327.296 64.3794 327.504L64.4008 335.686C64.4014 335.895 64.571 336.063 64.7797 336.063L137.685 335.872C137.893 335.871 138.062 335.702 138.061 335.493L138.04 327.311C138.04 327.103 137.87 326.934 137.661 326.934Z" fill="white"/>
<path opacity="0.53" d="M201.001 335.897L166.186 335.989C165.985 335.989 165.823 335.826 165.822 335.627L165.8 327.416C165.8 327.215 165.962 327.053 166.161 327.051L200.976 326.959C201.177 326.959 201.339 327.122 201.34 327.321L201.362 335.533C201.362 335.733 201.2 335.895 201.001 335.897Z" fill="white"/>
<path opacity="0.53" d="M289.478 335.664L208.541 335.877C208.223 335.877 207.964 335.62 207.963 335.301L207.943 327.518C207.943 327.2 208.2 326.941 208.518 326.939L289.455 326.727C289.773 326.727 290.031 326.984 290.033 327.302L290.053 335.085C290.053 335.404 289.796 335.663 289.478 335.664Z" fill="white"/>
<path opacity="0.53" d="M137.75 351.57L36.6676 351.837C36.4596 351.837 36.2898 351.668 36.2883 351.46L36.2668 343.279C36.2668 343.071 36.4351 342.901 36.6432 342.899L137.726 342.633C137.934 342.633 138.103 342.801 138.105 343.01L138.126 351.191C138.126 351.399 137.958 351.569 137.75 351.57Z" fill="white"/>
<path opacity="0.53" d="M201.016 351.598L166.201 351.69C166.001 351.69 165.838 351.528 165.837 351.329L165.815 343.117C165.815 342.916 165.978 342.754 166.176 342.752L200.991 342.661C201.192 342.661 201.354 342.823 201.355 343.022L201.377 351.234C201.377 351.434 201.215 351.597 201.016 351.598Z" fill="white"/>
<path opacity="0.53" d="M328.218 351.263L227.027 351.529C226.709 351.529 226.45 351.272 226.449 350.953L226.429 343.17C226.429 342.852 226.686 342.593 227.004 342.592L328.195 342.325C328.513 342.325 328.772 342.582 328.773 342.901L328.793 350.684C328.793 351.002 328.536 351.261 328.218 351.263Z" fill="white"/>
<path opacity="0.53" d="M61.9673 367.478L37.0547 367.544C36.7365 367.544 36.478 367.287 36.4764 366.969L36.4565 359.185C36.4565 358.867 36.7135 358.608 37.0317 358.607L61.9444 358.541C62.2626 358.541 62.5211 358.798 62.5226 359.116L62.5425 366.9C62.5425 367.218 62.2855 367.477 61.9673 367.478Z" fill="white"/>
<path opacity="0.53" d="M138.095 358.358L65.1904 358.549C64.9817 358.55 64.8129 358.72 64.8135 358.928L64.8349 367.11C64.8354 367.319 65.0051 367.487 65.2137 367.487L138.119 367.296C138.327 367.295 138.496 367.126 138.496 366.917L138.474 358.735C138.474 358.527 138.304 358.358 138.095 358.358Z" fill="white"/>
<path opacity="0.53" d="M201.343 367.321L166.528 367.412C166.328 367.412 166.166 367.25 166.164 367.051L166.143 358.839C166.143 358.639 166.305 358.476 166.504 358.475L201.319 358.383C201.519 358.383 201.681 358.545 201.683 358.744L201.704 366.956C201.704 367.157 201.542 367.319 201.343 367.321Z" fill="white"/>
<path opacity="0.53" d="M380.137 366.851L242.753 367.212C242.435 367.212 242.176 366.955 242.175 366.636L242.155 358.853C242.155 358.535 242.412 358.276 242.73 358.274L380.114 357.913C380.433 357.913 380.691 358.17 380.693 358.489L380.713 366.272C380.713 366.59 380.456 366.849 380.137 366.851Z" fill="white"/>
<path opacity="0.53" d="M61.8347 296.185L36.9222 296.251C36.6037 296.252 36.3461 296.511 36.347 296.829L36.3673 304.613C36.3682 304.931 36.6271 305.189 36.9456 305.188L61.8581 305.123C62.1766 305.122 62.4342 304.863 62.4333 304.544L62.413 296.761C62.4121 296.442 62.1532 296.185 61.8347 296.185Z" fill="white"/>
<path opacity="0.53" d="M137.696 296.002L64.7914 296.193C64.5827 296.194 64.414 296.363 64.4146 296.572L64.436 304.753C64.4365 304.962 64.6061 305.131 64.8148 305.13L137.72 304.939C137.928 304.939 138.097 304.769 138.097 304.56L138.075 296.379C138.075 296.17 137.905 296.001 137.696 296.002Z" fill="white"/>
<path opacity="0.53" d="M201.128 304.965L166.313 305.056C166.112 305.056 165.95 304.894 165.949 304.695L165.927 296.483C165.927 296.283 166.089 296.12 166.288 296.119L201.103 296.027C201.304 296.027 201.466 296.189 201.467 296.388L201.489 304.6C201.489 304.801 201.327 304.963 201.128 304.965Z" fill="white"/>
<path opacity="0.53" d="M379.334 304.495L241.95 304.856C241.632 304.856 241.373 304.599 241.372 304.28L241.352 296.497C241.352 296.179 241.609 295.92 241.927 295.918L379.311 295.557C379.629 295.557 379.888 295.814 379.89 296.133L379.909 303.916C379.909 304.234 379.652 304.493 379.334 304.495Z" fill="white"/>
<path opacity="0.53" d="M62.0855 311.907L37.1729 311.973C36.8544 311.973 36.5969 312.233 36.5977 312.551L36.6181 320.334C36.6189 320.653 36.8778 320.911 37.1963 320.91L62.1088 320.845C62.4274 320.844 62.6849 320.585 62.6841 320.266L62.6637 312.483C62.6629 312.164 62.404 311.907 62.0855 311.907Z" fill="white"/>
<path opacity="0.53" d="M138.126 311.726L65.2211 311.917C65.0124 311.918 64.8437 312.088 64.8443 312.297L64.8657 320.478C64.8662 320.687 65.0358 320.855 65.2445 320.855L138.149 320.664C138.358 320.663 138.527 320.494 138.526 320.285L138.505 312.104C138.504 311.895 138.335 311.726 138.126 311.726Z" fill="white"/>
<path opacity="0.53" d="M201.455 320.689L166.64 320.781C166.44 320.781 166.278 320.618 166.276 320.419L166.255 312.207C166.255 312.007 166.417 311.845 166.616 311.843L201.431 311.751C201.631 311.751 201.793 311.913 201.795 312.112L201.816 320.324C201.816 320.525 201.654 320.687 201.455 320.689Z" fill="white"/>
<path opacity="0.53" d="M380.104 320.217L242.719 320.578C242.401 320.578 242.143 320.321 242.141 320.003L242.121 312.22C242.121 311.901 242.378 311.642 242.697 311.641L380.081 311.28C380.399 311.28 380.658 311.537 380.659 311.855L380.679 319.638C380.679 319.957 380.422 320.216 380.104 320.217Z" fill="white"/>
<path opacity="0.53" d="M153.721 377.838L150.866 377.846C150.75 377.846 150.654 377.751 150.654 377.634L150.075 157.794C150.075 157.677 150.17 157.581 150.287 157.581L153.141 157.573C153.257 157.573 153.354 157.668 153.354 157.785L153.932 377.625C153.932 377.742 153.837 377.838 153.721 377.838Z" fill="white"/>
<path d="M247.018 417.607H49.6966C47.9328 417.607 46.5024 419.038 46.5024 420.803C46.5024 422.569 47.9328 424 49.6966 424H247.018C248.782 424 250.212 422.569 250.212 420.803C250.212 419.038 248.782 417.607 247.018 417.607Z" fill="url(#paint5_linear_11_14113)"/>
<path d="M219.069 385.108H77.6458C73.3823 385.108 69.9265 388.567 69.9265 392.833V417.607H226.79V392.833C226.79 388.567 223.334 385.108 219.07 385.108H219.069Z" fill="url(#paint6_linear_11_14113)"/>
<path d="M208.607 371.304H88.1097C83.8462 371.304 80.3904 374.762 80.3904 379.029V385.107H216.327V379.029C216.327 374.762 212.872 371.304 208.608 371.304H208.607Z" fill="url(#paint7_linear_11_14113)"/>
<path d="M113.997 330.585H182.718C183.787 330.585 184.655 331.453 184.655 332.523V371.304H112.06V332.523C112.06 331.453 112.927 330.585 113.997 330.585Z" fill="url(#paint8_linear_11_14113)"/>
<path d="M29.9762 214.094C28.2078 215.724 28.0533 218.466 29.629 220.283L128.967 336.37C130.61 338.265 133.494 338.428 135.339 336.728L143.791 328.94L34.3851 210.03L29.9747 214.094H29.9762Z" fill="url(#paint9_linear_11_14113)"/>
<path d="M43.5791 176.797C40.1967 173.27 34.6176 173.097 31.0241 176.408L22.1146 184.617C18.5211 187.929 18.2335 193.507 21.4675 197.171L139.997 332.435L164.842 309.542C166.857 307.685 166.949 304.533 165.046 302.561L43.5775 176.797H43.5791Z" fill="url(#paint10_linear_11_14113)"/>
<path d="M52.08 205.139L51.1484 205.998C48.2632 208.657 48.0781 213.152 50.7338 216.041L113.282 284.025C115.94 286.912 120.431 287.097 123.318 284.439L124.249 283.581C127.135 280.921 127.32 276.427 124.664 273.538L62.1154 205.554C59.4582 202.667 54.9667 202.481 52.08 205.139Z" fill="#B353FF"/>
<path opacity="0.39" d="M52.9339 204.344L50.3074 206.765L122.481 285.201L125.108 282.781L52.9339 204.344Z" fill="white"/>
<path d="M171.571 344.235C183.938 331.86 183.938 311.795 171.571 299.419C159.205 287.043 139.155 287.043 126.788 299.419C114.421 311.795 114.421 331.86 126.788 344.235C139.155 356.611 159.205 356.611 171.571 344.235Z" fill="#B353FF"/>
<path opacity="0.39" d="M166.284 338.944C175.73 329.491 175.73 314.164 166.284 304.71C156.837 295.257 141.522 295.257 132.075 304.71C122.629 314.164 122.629 329.491 132.075 338.944C141.522 348.397 156.837 348.397 166.284 338.944Z" fill="white"/>
<path d="M43.2061 193.264L51.0523 198.121C52.7642 199.182 55.0145 198.616 56.0226 196.872L116.751 90.2418C117.718 88.5685 117.181 86.4298 115.538 85.4133L111.444 82.8796L43.2061 193.265V193.264Z" fill="url(#paint11_linear_11_14113)"/>
<path d="M108.995 55.8542L117.265 60.9751C120.601 63.0403 121.673 67.3958 119.679 70.7761L46.726 195.444L23.6614 181.165C21.7904 180.007 21.2397 177.535 22.4421 175.692L99.1534 58.0694C101.286 54.7749 105.66 53.7905 108.995 55.8557V55.8542Z" fill="url(#paint12_linear_11_14113)"/>
<path d="M86.571 87.3239L45.7792 153.311C43.974 156.231 44.8766 160.061 47.7939 161.868C50.7112 163.674 54.5387 162.771 56.3439 159.851L97.1357 93.864C98.9409 90.9445 98.0383 87.1141 95.121 85.3076C92.2037 83.5011 88.3762 84.4044 86.571 87.3239Z" fill="#A953FF"/>
<path opacity="0.39" d="M46.5712 161.115L49.0093 162.624L96.3338 86.0618L93.8957 84.5525L46.5712 161.115Z" fill="white"/>
<path d="M55.8563 206.468C65.7866 196.53 65.7866 180.418 55.8563 170.48C45.926 160.543 29.8258 160.543 19.8955 170.48C9.96515 180.418 9.96515 196.53 19.8955 206.468C29.8258 216.405 45.926 216.405 55.8563 206.468Z" fill="#B353FF"/>
<path opacity="0.39" d="M51.6105 202.219C59.1959 194.628 59.1959 182.32 51.6105 174.729C44.025 167.138 31.7266 167.138 24.1412 174.729C16.5557 182.32 16.5557 194.628 24.1411 202.219C31.7266 209.81 44.025 209.81 51.6105 202.219Z" fill="white"/>
<path d="M194.305 100.11L190.338 106.636C188.738 109.27 185.843 110.452 183.826 109.297L109.354 67.18L120.417 48.9773C121.315 47.5015 122.952 46.8723 124.045 47.5857L193.673 93.0985C195.625 94.3615 195.906 97.477 194.306 100.109L194.305 100.11Z" fill="url(#paint13_linear_11_14113)"/>
<path d="M120.193 78.9561C131.208 78.5019 139.769 69.1978 139.315 58.175C138.861 47.1522 129.564 38.5848 118.549 39.039C107.534 39.4933 98.9732 48.7973 99.4272 59.8201C99.8811 70.8429 109.178 79.4104 120.193 78.9561Z" fill="#BE53FF"/>
<path opacity="0.39" d="M119.366 74.2666C127.787 74.2666 134.614 67.435 134.614 59.0079C134.614 50.5807 127.787 43.7492 119.366 43.7492C110.945 43.7492 104.119 50.5807 104.119 59.0079C104.119 67.435 110.945 74.2666 119.366 74.2666Z" fill="white"/>
<path d="M206.896 101.969L223.574 89.9203L246.682 118.045L243.179 122.185L222.286 99.7565L209.379 109.21L206.896 101.969Z" fill="#BE53FF"/>
<g opacity="0.3">
<path d="M288.468 56.9626C288.748 55.8159 289.854 55.0413 291.047 55.2036C293.66 55.5572 296.296 56.0318 298.881 56.6105C300.138 56.8922 300.931 58.1414 300.649 59.3998C300.646 59.4151 300.642 59.4289 300.639 59.4442C300.339 60.6766 299.106 61.4482 297.862 61.1696C295.405 60.62 292.901 60.1699 290.42 59.8331C289.142 59.6601 288.247 58.4828 288.42 57.2045C288.431 57.1218 288.446 57.0422 288.466 56.9626H288.468ZM308.185 61.9274C308.207 61.8386 308.234 61.7498 308.266 61.6625C308.716 60.4546 310.061 59.8392 311.268 60.2893C313.749 61.2155 316.214 62.2565 318.595 63.3833C319.761 63.9344 320.257 65.3214 319.708 66.4941C319.157 67.6607 317.765 68.1582 316.601 67.6071C314.336 66.5355 311.994 65.5465 309.637 64.6677C308.517 64.2498 307.908 63.0633 308.185 61.9289V61.9274ZM326.319 71.1129C326.381 70.8603 326.486 70.6138 326.636 70.3842C327.344 69.3064 328.791 69.0064 329.868 69.7152C332.076 71.1665 334.25 72.7326 336.326 74.3707C337.338 75.1699 337.51 76.638 336.714 77.6515C335.917 78.665 334.449 78.8395 333.436 78.0403C331.464 76.4849 329.402 74.9984 327.304 73.6206C326.457 73.0633 326.09 72.0483 326.318 71.116L326.319 71.1129ZM341.949 84.1288C342.05 83.7109 342.269 83.3174 342.602 82.9975C343.533 82.105 345.01 82.1371 345.902 83.0679C347.73 84.9785 349.499 86.9917 351.158 89.0508C351.966 90.055 351.809 91.5247 350.807 92.3346C349.803 93.1444 348.334 92.9852 347.525 91.9825C345.95 90.0275 344.271 88.1154 342.532 86.2997C341.96 85.7011 341.769 84.8775 341.951 84.1288H341.949ZM354.285 100.306C354.428 99.7213 354.795 99.1901 355.353 98.8563C356.459 98.1919 357.893 98.5517 358.555 99.6585C359.912 101.921 361.191 104.276 362.355 106.653C362.923 107.811 362.445 109.21 361.287 109.778C360.129 110.346 358.732 109.867 358.163 108.708C357.057 106.447 355.841 104.21 354.553 102.059C354.224 101.511 354.146 100.88 354.287 100.305L354.285 100.306ZM362.739 118.81C362.924 118.053 363.484 117.403 364.28 117.142C365.505 116.739 366.822 117.407 367.224 118.633C368.049 121.145 368.776 123.723 369.383 126.297C369.68 127.552 368.903 128.81 367.648 129.107C366.395 129.404 365.136 128.627 364.839 127.371C364.261 124.926 363.571 122.477 362.788 120.09C362.647 119.66 362.638 119.219 362.737 118.81H362.739ZM347.883 203.276C347.96 202.962 348.103 202.659 348.315 202.388C349.863 200.415 351.347 198.346 352.722 196.241C353.427 195.162 354.874 194.859 355.951 195.566C357.03 196.272 357.333 197.72 356.626 198.8C355.177 201.016 353.615 203.195 351.985 205.272C351.189 206.287 349.72 206.463 348.708 205.667C347.964 205.084 347.671 204.138 347.882 203.276H347.883ZM366.882 138.715C367.111 137.774 367.916 137.038 368.933 136.943C370.217 136.823 371.353 137.768 371.474 139.051C371.719 141.682 371.854 144.358 371.872 147.002C371.875 148.291 370.844 149.346 369.554 149.355C368.266 149.365 367.214 148.327 367.204 147.036C367.188 144.525 367.061 141.985 366.827 139.485C366.802 139.221 366.822 138.96 366.882 138.715ZM358.557 185.958C358.593 185.808 358.644 185.66 358.713 185.514C359.78 183.242 360.766 180.894 361.639 178.535C362.087 177.325 363.43 176.708 364.639 177.157C365.848 177.605 366.47 178.95 366.016 180.159C365.096 182.641 364.061 185.112 362.936 187.503C362.387 188.669 360.997 189.172 359.831 188.622C358.809 188.141 358.3 187.015 358.557 185.958ZM366.478 159.048C366.756 157.903 367.861 157.129 369.054 157.289C370.331 157.46 371.229 158.634 371.06 159.913C370.709 162.53 370.243 165.168 369.669 167.752C369.666 167.769 369.661 167.785 369.658 167.801C369.358 169.032 368.128 169.802 366.886 169.528C365.627 169.25 364.833 168.002 365.113 166.742C365.656 164.286 366.1 161.782 366.432 159.294C366.444 159.21 366.459 159.127 366.479 159.048H366.478Z" fill="url(#paint14_linear_11_14113)"/>
<path d="M336.638 215.208C336.746 214.761 336.988 214.342 337.358 214.014C338.259 213.216 339.159 212.387 340.034 211.548C340.964 210.655 342.442 210.686 343.334 211.617C344.227 212.547 344.196 214.026 343.265 214.919C342.345 215.801 341.4 216.673 340.451 217.514C339.486 218.368 338.01 218.278 337.158 217.312C336.632 216.716 336.463 215.926 336.639 215.208H336.638Z" fill="url(#paint15_linear_11_14113)"/>
</g>
<g opacity="0.3">
<path d="M269.162 237.8C269.428 236.705 270.458 235.934 271.616 236.027C272.815 236.124 274.036 236.197 275.246 236.244C276.534 236.295 277.537 237.38 277.487 238.669C277.437 239.963 276.352 240.963 275.064 240.912C273.791 240.862 272.504 240.785 271.241 240.684C269.956 240.58 268.998 239.455 269.102 238.169C269.113 238.043 269.133 237.919 269.162 237.8Z" fill="url(#paint16_linear_11_14113)"/>
<path d="M188.046 125.669C188.3 124.625 188.574 123.581 188.865 122.538C189.212 121.297 190.5 120.571 191.741 120.918C192.981 121.266 193.71 122.561 193.361 123.797C192.688 126.205 192.114 128.633 191.651 131.044C191.404 132.312 190.183 133.14 188.918 132.896C187.652 132.653 186.822 131.428 187.067 130.161C187.353 128.67 187.684 127.157 188.046 125.667V125.669ZM192.988 110.918C193.018 110.791 193.061 110.666 193.115 110.542C194.149 108.151 195.296 105.776 196.523 103.486C197.132 102.35 198.547 101.923 199.682 102.532C200.819 103.141 201.247 104.561 200.635 105.695C199.469 107.87 198.38 110.127 197.396 112.399C196.885 113.582 195.51 114.127 194.329 113.614C193.271 113.155 192.723 112.005 192.988 110.92V110.918ZM185.588 142.364C185.848 141.294 186.839 140.527 187.977 140.586C189.266 140.655 190.252 141.754 190.185 143.043C190.053 145.507 190.027 148.01 190.105 150.484C190.144 151.773 189.134 152.85 187.846 152.892C186.558 152.932 185.479 151.92 185.44 150.631C185.357 148.027 185.386 145.389 185.524 142.794C185.531 142.645 185.554 142.501 185.588 142.362V142.364ZM202.908 93.5257C202.979 93.2378 203.106 92.9592 203.291 92.7051C204.824 90.6016 206.463 88.5379 208.168 86.5722C209.012 85.5985 210.485 85.4929 211.46 86.338C212.434 87.183 212.54 88.6573 211.694 89.6325C210.077 91.4987 208.518 93.4583 207.063 95.4577C206.304 96.5002 204.843 96.7284 203.803 95.969C203.015 95.3949 202.693 94.4197 202.91 93.5272L202.908 93.5257ZM186.746 162.341C186.96 161.463 187.675 160.752 188.622 160.591C189.893 160.373 191.098 161.229 191.314 162.501C191.727 164.933 192.252 167.38 192.871 169.776C193.194 171.026 192.444 172.299 191.196 172.622C189.948 172.945 188.677 172.195 188.354 170.946C187.702 168.423 187.15 165.846 186.714 163.285C186.659 162.961 186.673 162.641 186.746 162.341ZM192.256 181.58C192.428 180.879 192.92 180.266 193.638 179.971C194.831 179.481 196.194 180.052 196.682 181.246C197.62 183.535 198.666 185.811 199.789 188.01C200.378 189.158 199.924 190.565 198.773 191.153C197.626 191.739 196.22 191.284 195.633 190.136C194.45 187.821 193.35 185.427 192.363 183.017C192.169 182.544 192.142 182.042 192.255 181.58H192.256ZM201.827 199.159C201.957 198.625 202.273 198.137 202.76 197.797C203.817 197.059 205.272 197.319 206.009 198.377C207.424 200.409 208.939 202.402 210.514 204.303C211.337 205.295 211.201 206.768 210.207 207.592C209.214 208.414 207.744 208.278 206.921 207.284C205.264 205.283 203.669 203.186 202.18 201.049C201.782 200.476 201.675 199.787 201.828 199.159H201.827ZM215 214.231C215.09 213.862 215.272 213.509 215.546 213.209C216.416 212.258 217.893 212.194 218.843 213.065C220.666 214.737 222.58 216.349 224.535 217.858C225.555 218.646 225.743 220.115 224.957 221.134C224.169 222.155 222.704 222.345 221.683 221.557C219.626 219.968 217.608 218.27 215.69 216.509C215.039 215.912 214.804 215.032 215 214.231ZM231.163 226.045C231.214 225.837 231.295 225.634 231.407 225.438C232.046 224.319 233.472 223.93 234.59 224.57C236.732 225.794 238.953 226.944 241.194 227.988C242.363 228.532 242.868 229.925 242.326 231.09C241.783 232.259 240.394 232.768 239.225 232.223C236.865 231.125 234.526 229.914 232.273 228.624C231.349 228.095 230.922 227.03 231.162 226.044L231.163 226.045ZM249.513 234.012C249.524 233.966 249.538 233.919 249.552 233.873C249.932 232.641 251.239 231.95 252.47 232.333C254.208 232.872 255.983 233.362 257.748 233.792C258.386 233.948 259.025 234.095 259.665 234.237C260.924 234.516 261.719 235.762 261.441 237.022C261.184 238.304 259.917 239.077 258.66 238.8C257.987 238.651 257.317 238.495 256.644 238.331C254.788 237.878 252.92 237.362 251.092 236.796C249.906 236.43 249.224 235.203 249.513 234.014V234.012Z" fill="url(#paint17_linear_11_14113)"/>
<path d="M216.459 78.7109C216.569 78.2593 216.814 77.8367 217.189 77.5091C218.139 76.6763 219.125 75.8481 220.12 75.0474C221.123 74.2375 222.593 74.3968 223.401 75.4026C224.209 76.4084 224.051 77.8765 223.046 78.6864C222.102 79.4473 221.165 80.2342 220.262 81.0257C219.294 81.8753 217.819 81.7773 216.97 80.8067C216.45 80.2112 216.285 79.4274 216.459 78.714V78.7109Z" fill="url(#paint18_linear_11_14113)"/>
</g>
<path d="M242.013 88.1888C241.594 88.3894 241.346 88.8349 241.399 89.2972L242.9 102.498C238.061 106.378 233.805 111.056 230.362 116.431L217.095 116.326C216.63 116.321 216.214 116.614 216.058 117.053L210.747 132.076C210.592 132.515 210.732 133.004 211.096 133.294L221.477 141.561C220.776 147.909 221.145 154.224 222.47 160.286L213.008 169.605C212.676 169.931 212.589 170.433 212.789 170.853L219.649 185.234C219.849 185.655 220.294 185.902 220.756 185.848L233.948 184.346C237.824 189.188 242.499 193.447 247.87 196.894L247.765 210.171C247.762 210.637 248.052 211.053 248.491 211.209L263.503 216.525C263.942 216.679 264.43 216.54 264.721 216.176L272.982 205.787C279.324 206.488 285.635 206.119 291.691 204.793L301.003 214.263C301.329 214.596 301.831 214.683 302.25 214.482L316.621 207.618C317.041 207.417 317.287 206.972 317.234 206.509L315.733 193.308C320.572 189.429 324.828 184.75 328.271 179.375L341.539 179.481C342.004 179.484 342.42 179.193 342.576 178.754L347.888 163.729C348.044 163.29 347.903 162.801 347.539 162.511L337.158 154.244C337.859 147.896 337.49 141.581 336.165 135.519L345.627 126.2C345.959 125.874 346.046 125.372 345.846 124.952L338.986 110.571C338.786 110.15 338.34 109.903 337.878 109.957L324.687 111.459C320.811 106.617 316.136 102.358 310.764 98.9114L310.87 85.6337C310.875 85.1683 310.582 84.7519 310.143 84.5958L295.132 79.2804C294.693 79.1258 294.205 79.2651 293.914 79.6295L285.653 90.0183C279.312 89.3171 273 89.6861 266.944 91.0119L257.632 81.5431C257.306 81.2109 256.804 81.1236 256.385 81.3242L242.014 88.1888H242.013Z" fill="url(#paint19_linear_11_14113)"/>
<path opacity="0.56" d="M263.766 144.098C265.614 136.512 272.804 131.208 280.799 131.953C289.588 132.772 296.071 140.592 295.254 149.388C294.859 153.648 292.828 157.5 289.537 160.231C286.247 162.964 282.09 164.25 277.833 163.853C269.044 163.034 262.561 155.214 263.378 146.419C263.451 145.626 263.583 144.851 263.765 144.098H263.766ZM291.235 150.837C291.378 150.251 291.479 149.652 291.537 149.04C292.164 142.298 287.191 136.301 280.453 135.674C273.715 135.046 267.721 140.02 267.095 146.765C266.468 153.507 271.44 159.504 278.179 160.132C281.443 160.436 284.63 159.449 287.152 157.354C289.202 155.652 290.616 153.382 291.235 150.837Z" fill="white"/>
<path opacity="0.56" d="M241.228 138.936C241.545 137.633 241.93 136.338 242.383 135.057C242.525 134.654 242.675 134.251 242.83 133.853C243.596 131.888 244.518 129.986 245.582 128.178C245.595 128.154 245.611 128.129 245.624 128.105C245.666 128.034 245.707 127.965 245.75 127.896C245.831 127.76 245.914 127.625 245.996 127.492C246.213 127.139 246.628 126.981 247.01 127.074C247.104 127.097 247.194 127.134 247.28 127.188C247.719 127.459 247.853 128.034 247.584 128.472C246.192 130.732 245.034 133.158 244.142 135.681C239.709 148.215 242.357 161.563 249.987 171.335C254.231 176.771 260.015 181.099 266.982 183.565C268.203 183.999 269.437 184.366 270.679 184.668C279.037 186.705 287.769 185.813 295.636 182.054C304.674 177.737 311.491 170.156 314.831 160.709C321.727 141.196 311.479 119.724 291.991 112.824C290.79 112.399 289.571 112.036 288.341 111.736C283.009 110.436 277.453 110.318 272.07 111.411C271.931 111.439 271.793 111.436 271.663 111.404C271.323 111.321 271.043 111.049 270.968 110.681C270.868 110.174 271.192 109.681 271.698 109.58C277.349 108.434 283.184 108.558 288.78 109.922C290.071 110.236 291.35 110.617 292.612 111.064C313.073 118.308 323.826 140.865 316.59 161.333C313.084 171.252 305.927 179.21 296.439 183.741C288.18 187.688 279.014 188.625 270.24 186.486C268.937 186.168 267.641 185.782 266.359 185.329C256.448 181.82 248.496 174.658 243.966 165.164C240.022 156.897 239.088 147.72 241.226 138.939L241.228 138.936Z" fill="white"/>
<path d="M203.528 95.1879L196.259 90.8011C196.101 90.706 195.896 90.7568 195.801 90.9146L182.617 112.796C182.522 112.953 182.572 113.158 182.73 113.254L190 117.64C190.157 117.736 190.362 117.685 190.457 117.527L203.642 95.646C203.737 95.4882 203.686 95.2831 203.528 95.1879Z" fill="url(#paint20_linear_11_14113)"/>
<path d="M202.549 121.878L199.979 142.301L235.722 149.109L237.673 144.048L207.987 136.454L210.089 120.586L202.549 121.878Z" fill="#BE53FF"/>
<path d="M197.164 121.347C200.594 124.159 205.383 125.128 209.843 123.477C216.531 120.998 219.947 113.564 217.47 106.869C216.217 103.481 213.695 100.932 210.643 99.5636L197.164 121.347Z" fill="url(#paint21_linear_11_14113)"/>
<path d="M189.825 116.813L187.716 120.314C187.335 120.946 187.575 121.788 188.25 122.195L194.736 126.11C195.411 126.517 196.267 126.336 196.648 125.704L213.47 97.7893C213.851 97.1585 213.612 96.315 212.936 95.9078L206.45 91.9932C205.775 91.586 204.918 91.7666 204.537 92.3989L202.604 95.6062L189.825 116.813Z" fill="url(#paint22_linear_11_14113)"/>
<g opacity="0.3">
<path d="M299.41 216.398C299.403 215.726 299.903 215.142 300.585 215.063C302.075 214.888 303.596 214.776 305.104 214.73C305.838 214.707 306.45 215.285 306.473 216.018C306.473 216.027 306.473 216.035 306.473 216.044C306.482 216.767 305.91 217.365 305.187 217.388C303.755 217.432 302.311 217.538 300.894 217.703C300.166 217.789 299.505 217.267 299.421 216.537C299.415 216.489 299.413 216.444 299.412 216.398H299.41ZM310.985 216.346C310.985 216.293 310.986 216.241 310.992 216.188C311.07 215.458 311.724 214.928 312.453 215.006C313.952 215.165 315.459 215.39 316.931 215.675C317.651 215.814 318.121 216.508 317.983 217.232C317.844 217.953 317.147 218.425 316.428 218.285C315.028 218.014 313.596 217.801 312.172 217.65C311.496 217.578 310.992 217.01 310.985 216.346ZM322.282 218.846C322.281 218.697 322.304 218.547 322.354 218.398C322.593 217.703 323.348 217.335 324.041 217.572C325.464 218.06 326.884 218.616 328.259 219.225C328.931 219.522 329.232 220.308 328.937 220.98C328.64 221.652 327.855 221.955 327.184 221.658C325.877 221.079 324.529 220.551 323.179 220.087C322.632 219.9 322.287 219.392 322.281 218.846H322.282ZM332.74 223.812C332.737 223.567 332.801 223.319 332.94 223.095C333.327 222.472 334.147 222.281 334.77 222.668C336.049 223.463 337.308 224.323 338.513 225.223C339.101 225.663 339.222 226.496 338.782 227.085C338.343 227.673 337.511 227.794 336.922 227.354C335.778 226.499 334.582 225.683 333.367 224.928C332.968 224.678 332.744 224.253 332.74 223.813V223.812ZM341.828 230.987C341.824 230.644 341.952 230.3 342.212 230.037C342.728 229.515 343.569 229.51 344.091 230.026C345.159 231.082 346.196 232.2 347.173 233.346C347.651 233.905 347.585 234.744 347.026 235.22C346.468 235.696 345.63 235.631 345.152 235.072C344.222 233.982 343.237 232.921 342.223 231.917C341.964 231.661 341.833 231.324 341.828 230.987ZM349.102 239.995C349.098 239.551 349.314 239.113 349.716 238.858C350.334 238.463 351.155 238.643 351.55 239.263C352.359 240.531 353.124 241.851 353.823 243.184C354.164 243.835 353.914 244.639 353.263 244.98C352.615 245.321 351.81 245.07 351.471 244.42C350.807 243.154 350.08 241.9 349.31 240.695C349.171 240.477 349.104 240.236 349.102 239.997V239.995ZM352.841 288.674C352.84 288.49 352.875 288.304 352.954 288.123C353.53 286.815 354.056 285.465 354.516 284.11C354.753 283.415 355.508 283.043 356.202 283.281C356.897 283.518 357.268 284.273 357.031 284.968C356.545 286.394 355.991 287.817 355.387 289.195C355.092 289.867 354.307 290.171 353.635 289.876C353.143 289.658 352.847 289.179 352.841 288.674ZM354.198 250.387C354.192 249.836 354.532 249.315 355.079 249.12C355.771 248.872 356.531 249.231 356.777 249.923C357.285 251.339 357.737 252.797 358.121 254.251C358.304 254.962 357.885 255.689 357.175 255.876C356.465 256.062 355.739 255.64 355.552 254.929C355.188 253.547 354.76 252.165 354.278 250.819C354.227 250.676 354.201 250.53 354.2 250.387H354.198ZM356.28 277.616C356.28 277.529 356.286 277.439 356.303 277.35C356.571 275.946 356.782 274.511 356.93 273.088C357.007 272.357 357.66 271.828 358.39 271.903C359.119 271.979 359.653 272.633 359.574 273.363C359.418 274.862 359.196 276.372 358.913 277.849C358.775 278.57 358.079 279.043 357.359 278.905C356.728 278.784 356.286 278.236 356.28 277.616ZM356.848 261.656C356.84 260.986 357.339 260.402 358.02 260.321C358.748 260.234 359.409 260.756 359.496 261.485C359.673 262.977 359.788 264.499 359.837 266.004C359.837 266.013 359.837 266.022 359.837 266.032C359.846 266.753 359.276 267.351 358.552 267.376C357.818 267.4 357.204 266.825 357.181 266.09C357.134 264.66 357.025 263.215 356.857 261.796C356.852 261.748 356.848 261.701 356.848 261.653V261.656Z" fill="url(#paint23_linear_11_14113)"/>
<path d="M348.325 296.845C348.322 296.583 348.396 296.318 348.553 296.084C348.937 295.516 349.317 294.931 349.681 294.346C350.068 293.721 350.886 293.53 351.51 293.917C352.134 294.305 352.327 295.124 351.939 295.748C351.556 296.365 351.158 296.979 350.753 297.578C350.342 298.186 349.515 298.345 348.908 297.933C348.533 297.679 348.33 297.267 348.325 296.848V296.845Z" fill="url(#paint24_linear_11_14113)"/>
</g>
<g opacity="0.3">
<path d="M314.307 318.847C314.3 318.206 314.759 317.635 315.41 317.523C316.085 317.406 316.769 317.273 317.444 317.129C318.161 316.975 318.868 317.431 319.022 318.149C319.177 318.87 318.719 319.574 318.003 319.729C317.294 319.882 316.575 320.021 315.863 320.144C315.14 320.268 314.453 319.782 314.329 319.06C314.317 318.989 314.311 318.917 314.309 318.849L314.307 318.847Z" fill="url(#paint25_linear_11_14113)"/>
<path d="M253.74 268.49C253.732 267.878 253.735 267.264 253.749 266.649C253.766 265.914 254.373 265.332 255.106 265.349C255.84 265.364 256.425 265.977 256.406 266.707C256.376 268.129 256.402 269.55 256.487 270.946C256.53 271.679 255.975 272.308 255.242 272.354C254.509 272.399 253.879 271.842 253.835 271.108C253.783 270.245 253.751 269.364 253.74 268.492V268.49ZM254.381 259.657C254.381 259.583 254.386 259.507 254.398 259.43C254.63 257.965 254.927 256.494 255.28 255.056C255.456 254.343 256.175 253.908 256.888 254.083C257.601 254.259 258.039 254.98 257.861 255.692C257.526 257.056 257.243 258.455 257.023 259.847C256.908 260.572 256.227 261.067 255.502 260.951C254.854 260.848 254.39 260.291 254.382 259.655L254.381 259.657ZM254.742 278.043C254.734 277.417 255.173 276.854 255.808 276.725C256.527 276.581 257.228 277.048 257.372 277.768C257.647 279.146 257.987 280.529 258.378 281.881C258.582 282.587 258.178 283.323 257.473 283.529C256.767 283.734 256.03 283.328 255.827 282.622C255.414 281.197 255.057 279.74 254.766 278.29C254.75 278.207 254.742 278.124 254.74 278.043H254.742ZM257.395 248.662C257.393 248.493 257.424 248.322 257.489 248.155C258.037 246.779 258.651 245.409 259.313 244.083C259.64 243.426 260.439 243.16 261.095 243.487C261.751 243.815 262.018 244.614 261.69 245.271C261.062 246.529 260.48 247.83 259.96 249.138C259.689 249.821 258.915 250.153 258.234 249.882C257.719 249.677 257.404 249.185 257.396 248.662H257.395ZM258.202 288.894C258.196 288.38 258.49 287.887 258.99 287.664C259.66 287.364 260.447 287.665 260.745 288.336C261.317 289.617 261.952 290.894 262.631 292.128C262.986 292.771 262.752 293.579 262.109 293.934C261.467 294.288 260.659 294.055 260.304 293.412C259.588 292.112 258.92 290.77 258.319 289.42C258.242 289.248 258.205 289.071 258.202 288.894ZM263.959 298.725C263.954 298.314 264.139 297.905 264.494 297.642C265.083 297.204 265.916 297.325 266.353 297.915C267.194 299.044 268.092 300.151 269.021 301.205C269.507 301.754 269.455 302.595 268.905 303.082C268.354 303.568 267.516 303.515 267.029 302.965C266.05 301.855 265.105 300.692 264.221 299.502C264.046 299.268 263.96 298.995 263.957 298.725H263.959ZM271.72 307.065C271.716 306.753 271.822 306.437 272.042 306.182C272.521 305.626 273.359 305.563 273.916 306.042C274.983 306.962 276.101 307.847 277.238 308.672C277.831 309.104 277.964 309.934 277.533 310.529C277.101 311.123 276.271 311.257 275.677 310.825C274.481 309.957 273.304 309.025 272.182 308.057C271.882 307.798 271.724 307.434 271.721 307.065H271.72ZM281.112 313.512C281.109 313.296 281.16 313.075 281.27 312.87C281.616 312.223 282.42 311.978 283.068 312.324C284.31 312.988 285.593 313.607 286.883 314.161C287.557 314.452 287.868 315.234 287.579 315.908C287.288 316.583 286.508 316.894 285.833 316.604C284.473 316.019 283.123 315.369 281.815 314.669C281.371 314.432 281.117 313.98 281.112 313.51V313.512ZM291.694 317.74C291.694 317.618 291.708 317.494 291.741 317.371C291.936 316.664 292.667 316.247 293.375 316.442C294.729 316.814 296.117 317.134 297.5 317.393C298.222 317.527 298.696 318.224 298.563 318.943C298.428 319.666 297.735 320.142 297.013 320.007C295.557 319.736 294.096 319.4 292.67 319.006C292.086 318.845 291.7 318.317 291.694 317.74ZM302.938 319.537C302.938 319.51 302.938 319.482 302.939 319.455C302.976 318.721 303.599 318.157 304.332 318.192C305.366 318.242 306.414 318.262 307.448 318.25C307.823 318.245 308.196 318.236 308.568 318.224C309.3 318.199 309.915 318.775 309.94 319.508C309.98 320.251 309.391 320.857 308.656 320.882C308.265 320.895 307.873 320.905 307.478 320.909C306.391 320.921 305.288 320.901 304.2 320.848C303.495 320.813 302.946 320.234 302.936 319.537H302.938Z" fill="url(#paint26_linear_11_14113)"/>
<path d="M262.775 238.578C262.772 238.313 262.847 238.046 263.008 237.811C263.414 237.217 263.841 236.621 264.276 236.038C264.715 235.45 265.547 235.329 266.136 235.768C266.723 236.208 266.844 237.041 266.405 237.63C265.992 238.183 265.587 238.749 265.2 239.314C264.785 239.92 263.959 240.075 263.353 239.66C262.983 239.406 262.781 238.996 262.777 238.578H262.775Z" fill="url(#paint27_linear_11_14113)"/>
</g>
<path d="M278.204 240.188C278.001 240.358 277.927 240.638 278.022 240.886L280.715 247.953C278.594 250.776 276.909 253.959 275.769 257.409L268.438 259.228C268.181 259.293 267.993 259.511 267.968 259.776L267.162 268.812C267.139 269.077 267.285 269.326 267.526 269.435L274.42 272.524C274.931 276.123 276.024 279.554 277.612 282.71L273.711 289.187C273.575 289.413 273.597 289.703 273.766 289.906L279.581 296.866C279.751 297.07 280.031 297.143 280.279 297.048L287.34 294.354C290.161 296.476 293.342 298.163 296.79 299.303L298.607 306.639C298.671 306.897 298.89 307.085 299.155 307.109L308.184 307.916C308.447 307.939 308.698 307.794 308.805 307.552L311.892 300.653C315.488 300.142 318.917 299.048 322.069 297.458L328.542 301.362C328.768 301.499 329.058 301.477 329.261 301.307L336.215 295.488C336.419 295.318 336.492 295.038 336.397 294.79L333.705 287.723C335.825 284.9 337.511 281.717 338.651 278.267L345.982 276.448C346.239 276.384 346.427 276.165 346.451 275.9L347.257 266.864C347.28 266.601 347.135 266.35 346.893 266.241L340 263.152C339.489 259.553 338.395 256.122 336.807 252.967L340.708 246.489C340.845 246.263 340.823 245.973 340.653 245.77L334.839 238.81C334.669 238.607 334.389 238.533 334.141 238.628L327.08 241.323C324.259 239.201 321.078 237.514 317.63 236.373L315.813 229.037C315.748 228.78 315.53 228.591 315.265 228.567L306.236 227.76C305.973 227.737 305.722 227.883 305.614 228.124L302.526 235.023C298.93 235.534 295.502 236.629 292.349 238.218L285.876 234.314C285.65 234.178 285.361 234.199 285.157 234.369L278.203 240.188H278.204Z" fill="url(#paint28_linear_11_14113)"/>
<path opacity="0.56" d="M298.098 267.941C298.046 263.496 301.26 259.554 305.774 258.833C310.737 258.042 315.417 261.437 316.207 266.402C316.591 268.807 316.015 271.218 314.587 273.19C313.159 275.162 311.049 276.46 308.646 276.843C303.683 277.634 299.003 274.239 298.213 269.274C298.141 268.827 298.104 268.38 298.099 267.939L298.098 267.941ZM314.197 267.771C314.193 267.428 314.164 267.083 314.109 266.737C313.501 262.93 309.912 260.327 306.109 260.934C302.305 261.541 299.703 265.131 300.31 268.939C300.917 272.746 304.506 275.349 308.309 274.743C310.153 274.449 311.77 273.454 312.865 271.941C313.755 270.712 314.213 269.26 314.196 267.769L314.197 267.771Z" fill="white"/>
<path opacity="0.56" d="M284.94 268.284C284.931 267.52 284.96 266.753 285.029 265.981C285.05 265.739 285.076 265.496 285.105 265.254C285.25 264.061 285.491 262.883 285.821 261.736C285.826 261.721 285.83 261.705 285.835 261.688C285.847 261.644 285.861 261.6 285.875 261.555C285.901 261.469 285.927 261.382 285.953 261.296C286.023 261.071 286.229 260.924 286.453 260.923C286.508 260.923 286.563 260.931 286.618 260.947C286.898 261.035 287.054 261.333 286.967 261.613C286.519 263.057 286.223 264.557 286.087 266.076C285.413 273.614 288.76 280.6 294.347 284.909C297.454 287.307 301.255 288.876 305.445 289.25C306.179 289.315 306.912 289.343 307.64 289.335C312.537 289.277 317.226 287.549 321.032 284.363C325.406 280.704 328.094 275.56 328.602 269.877C329.648 258.143 320.965 247.751 309.244 246.704C308.522 246.639 307.798 246.612 307.077 246.62C303.954 246.658 300.874 247.377 298.059 248.741C297.986 248.777 297.909 248.793 297.834 248.795C297.636 248.798 297.443 248.686 297.35 248.495C297.223 248.23 297.331 247.912 297.596 247.785C300.55 246.353 303.784 245.595 307.064 245.556C307.821 245.546 308.58 245.575 309.338 245.643C321.644 246.744 330.76 257.661 329.662 269.971C329.129 275.937 326.307 281.336 321.714 285.177C317.717 288.522 312.796 290.335 307.654 290.396C306.891 290.405 306.121 290.376 305.35 290.307C299.389 289.775 293.992 286.95 290.153 282.356C286.811 278.354 285 273.428 284.938 268.282L284.94 268.284Z" fill="white"/>
<path d="M321.903 304.139L321.491 300.586C329.81 299.268 335.675 294.286 338.16 292.855C340.739 296.194 342.506 299.222 344.4 303.189C334.08 307.71 321.903 304.141 321.903 304.141V304.139Z" fill="url(#paint29_linear_11_14113)"/>
<path d="M418.954 413.062C418.954 413.062 420.493 415.49 420.88 422.288C420.917 422.922 420.415 423.461 419.78 423.461H407.741C407.256 423.461 406.91 422.987 407.066 422.527C407.771 420.438 409.906 415.343 414.665 412.432L418.954 413.062Z" fill="url(#paint30_linear_11_14113)"/>
<path d="M419.477 408.455L418.797 414.168C418.738 414.661 418.351 415.056 417.859 415.113C417.201 415.19 416.243 415.243 415.313 415.089C414.467 414.949 413.86 414.196 413.86 413.337V407.82L419.479 408.453L419.477 408.455Z" fill="url(#paint31_linear_11_14113)"/>
<path d="M389.168 412.431C389.168 412.431 391.471 416.015 391.422 420.935C391.41 422.094 390.442 423.017 389.284 423.017H370.585C369.71 423.017 369.354 421.892 370.071 421.388C373.61 418.902 380.564 414.257 385.594 412.431H389.169H389.168Z" fill="url(#paint32_linear_11_14113)"/>
<path d="M391.094 406.261L389.642 413.317C389.48 414.107 388.707 414.637 387.922 414.462C387.445 414.355 386.88 414.152 386.278 413.775C385.706 413.417 385.415 412.735 385.533 412.07L387.035 403.521L391.094 406.261Z" fill="url(#paint33_linear_11_14113)"/>
<path d="M416.81 308.147C416.81 308.147 421.859 312.602 422.809 317.964C423.759 323.325 420.117 410.451 420.117 410.451C420.117 410.451 415.067 411.292 412.463 409.713C412.463 409.713 409.376 353.169 407.03 340.102C407.03 340.102 394.722 398.675 391.312 409.259C391.312 409.259 386.448 409.851 384.878 408.925C384.878 408.925 388.101 332.999 392.154 319.499L416.81 308.147Z" fill="url(#paint34_linear_11_14113)"/>
<path d="M407.178 338.265C407.421 338.265 407.644 338.101 407.707 337.855L409.798 329.828L414.252 326.969C414.507 326.805 414.581 326.465 414.417 326.211C414.253 325.955 413.915 325.882 413.66 326.045L409.026 329.02C408.91 329.095 408.825 329.21 408.792 329.343L406.647 337.578C406.571 337.872 406.746 338.17 407.039 338.247C407.085 338.259 407.132 338.265 407.178 338.265Z" fill="url(#paint35_linear_11_14113)"/>
<path d="M366.975 257.804C388.235 256.038 393.791 260.441 393.791 260.441L383.575 276.581C383.575 276.581 362.685 276.168 347.718 264.623C350.519 261.604 352.465 258.268 353.712 255.67C357.571 257.275 362.015 258.216 366.975 257.804Z" fill="url(#paint36_linear_11_14113)"/>
<path d="M333.684 226.575C333.713 225.894 334.635 225.709 334.924 226.326L337.637 232.119C338.161 233.238 338.328 234.492 338.119 235.709L337.167 239.08C336.883 240.724 337.312 242.41 338.353 243.712C340.845 246.831 346.153 252.526 353.71 255.669C352.462 258.267 350.518 261.603 347.716 264.622C342.225 260.386 337.528 254.652 334.955 246.889C333.722 246.511 332.899 245.349 332.948 244.06L333.682 226.575H333.684Z" fill="url(#paint37_linear_11_14113)"/>
<path d="M359.976 267.161C367.46 259.09 381.716 255.445 389.969 253.948C393.586 253.291 397.15 255.306 398.431 258.752C402.145 268.744 412.246 294.738 414.204 299.207C415.811 302.872 417.487 306.451 418.553 308.689C419.19 310.026 418.635 311.626 417.301 312.269C410.357 315.618 397.861 319.407 392.796 320.886C391.683 321.211 390.572 320.375 390.572 319.213C390.572 318.228 390.304 317.261 389.798 316.416L370.613 284.423C358.656 297.691 351.308 303.019 343.328 303.804C340.693 301.119 336.366 295.441 337.782 292.743C348.004 287.39 359.975 267.16 359.975 267.16L359.976 267.161Z" fill="url(#paint38_linear_11_14113)"/>
<path d="M324.881 303.672L316.437 312.334L304.088 315.482C304.558 313.656 312.519 308.924 312.519 308.924C312.519 308.924 318.387 301.387 320.238 299.625C321.776 298.161 323.656 300.586 324.248 301.45C324.369 301.626 324.436 301.737 324.436 301.737L324.878 303.672H324.881Z" fill="url(#paint39_linear_11_14113)"/>
<path d="M378.617 239.126L384.991 254.694C384.991 254.694 377.667 259.767 371.774 259.285L368.592 245.286L378.617 239.126Z" fill="url(#paint40_linear_11_14113)"/>
<path d="M367.848 228.513C367.703 228.72 363.236 244.867 363.236 244.867L372.502 247.223L379.007 232.549C379.007 232.549 370.291 225.047 367.848 228.513Z" fill="url(#paint41_linear_11_14113)"/>
<path d="M375.517 234.778L372.698 242.771C372.661 242.873 372.614 242.968 372.551 243.057C372.169 243.601 370.715 245.376 368.991 243.777C367.426 242.325 365.978 241.024 364.639 240.788C364.038 240.683 363.456 241.05 363.293 241.638C362.887 243.105 362.035 246.428 361.734 249.427C361.673 250.037 362.093 250.586 362.693 250.701C364.503 251.045 368.34 251.664 371.544 251.437C371.979 251.407 372.36 251.146 372.542 250.75C373.425 248.819 376.129 242.962 377.136 241.447C378.08 240.024 380.394 240.064 381.366 240.15C381.684 240.177 381.997 240.075 382.238 239.865C383.087 239.12 384.704 237.218 382.429 234.942C381.953 234.466 381.965 233.697 382.456 233.235C383.432 232.316 384.477 230.686 382.85 228.665C381.196 226.61 379.013 226.938 377.676 227.426C377.134 227.624 376.545 227.396 376.252 226.9C376.085 226.618 375.793 226.404 375.286 226.448C374.604 226.506 374.03 225.937 374.043 225.252C374.066 223.936 373.596 222.273 371.313 221.563C367.266 220.301 364.742 224.216 364.491 227.135C364.241 230.055 368.707 231.173 371.333 230.977C373.33 230.827 374.812 232.808 375.409 233.766C375.597 234.069 375.635 234.441 375.516 234.779L375.517 234.778Z" fill="url(#paint42_linear_11_14113)"/>
<path d="M376.08 244.346C376.08 244.346 376.734 239.276 378.842 239.028C380.95 238.78 383 240.513 380.905 243.359C378.299 246.898 376.08 244.346 376.08 244.346Z" fill="url(#paint43_linear_11_14113)"/>
</g>
<defs>
<linearGradient id="paint0_linear_11_14113" x1="476.3" y1="547.264" x2="101.731" y2="82.416" gradientUnits="userSpaceOnUse">
<stop stop-color="#B37CFF"/>
<stop offset="1" stop-color="#F895E7"/>
</linearGradient>
<linearGradient id="paint1_linear_11_14113" x1="50.3092" y1="267.712" x2="178.795" y2="60.881" gradientUnits="userSpaceOnUse">
<stop stop-color="#B37CFF"/>
<stop offset="1" stop-color="#F895E7"/>
</linearGradient>
<linearGradient id="paint2_linear_11_14113" x1="29.9873" y1="-48.508" x2="103.922" y2="530.409" gradientUnits="userSpaceOnUse">
<stop stop-color="#A737D5"/>
<stop offset="1" stop-color="#EF497A"/>
</linearGradient>
<linearGradient id="paint3_linear_11_14113" x1="373.985" y1="133.898" x2="47.6883" y2="382.158" gradientUnits="userSpaceOnUse">
<stop stop-color="#2B3582"/>
<stop offset="1" stop-color="#150E42"/>
</linearGradient>
<linearGradient id="paint4_linear_11_14113" x1="339.749" y1="112.515" x2="-53.5985" y2="549.471" gradientUnits="userSpaceOnUse">
<stop stop-color="#7C3FFD"/>
<stop offset="1" stop-color="#FF0066"/>
</linearGradient>
<linearGradient id="paint5_linear_11_14113" x1="149.879" y1="397.189" x2="149.146" y2="408.548" gradientUnits="userSpaceOnUse">
<stop stop-color="#2B3582"/>
<stop offset="1" stop-color="#150E42"/>
</linearGradient>
<linearGradient id="paint6_linear_11_14113" x1="150.167" y1="365.813" x2="147.599" y2="421.511" gradientUnits="userSpaceOnUse">
<stop stop-color="#2B3582"/>
<stop offset="1" stop-color="#150E42"/>
</linearGradient>
<linearGradient id="paint7_linear_11_14113" x1="149.835" y1="350.67" x2="147.635" y2="397.209" gradientUnits="userSpaceOnUse">
<stop stop-color="#2B3582"/>
<stop offset="1" stop-color="#150E42"/>
</linearGradient>
<linearGradient id="paint8_linear_11_14113" x1="150.831" y1="318.045" x2="147.525" y2="363.188" gradientUnits="userSpaceOnUse">
<stop stop-color="#CB236D"/>
<stop offset="1" stop-color="#4C246D"/>
</linearGradient>
<linearGradient id="paint9_linear_11_14113" x1="77.3847" y1="280.278" x2="89.1143" y2="269.485" gradientUnits="userSpaceOnUse">
<stop stop-color="#2B3582"/>
<stop offset="1" stop-color="#150E42"/>
</linearGradient>
<linearGradient id="paint10_linear_11_14113" x1="76.1719" y1="263.036" x2="104.621" y2="236.859" gradientUnits="userSpaceOnUse">
<stop stop-color="#2B3582"/>
<stop offset="1" stop-color="#150E42"/>
</linearGradient>
<linearGradient id="paint11_linear_11_14113" x1="102.361" y1="158.505" x2="78.5063" y2="138.595" gradientUnits="userSpaceOnUse">
<stop stop-color="#2B3582"/>
<stop offset="1" stop-color="#150E42"/>
</linearGradient>
<linearGradient id="paint12_linear_11_14113" x1="33.5479" y1="187.256" x2="113.264" y2="58.4809" gradientUnits="userSpaceOnUse">
<stop stop-color="#2B3582"/>
<stop offset="1" stop-color="#150E42"/>
</linearGradient>
<linearGradient id="paint13_linear_11_14113" x1="115.67" y1="56.7551" x2="192.317" y2="103.341" gradientUnits="userSpaceOnUse">
<stop stop-color="#2B3582"/>
<stop offset="1" stop-color="#150E42"/>
</linearGradient>
<linearGradient id="paint14_linear_11_14113" x1="340.226" y1="66.7292" x2="308.652" y2="196.155" gradientUnits="userSpaceOnUse">
<stop stop-color="#B37CFF"/>
<stop offset="1" stop-color="#F895E7"/>
</linearGradient>
<linearGradient id="paint15_linear_11_14113" x1="341.23" y1="210.768" x2="339.386" y2="218.328" gradientUnits="userSpaceOnUse">
<stop stop-color="#B37CFF"/>
<stop offset="1" stop-color="#F895E7"/>
</linearGradient>
<linearGradient id="paint16_linear_11_14113" x1="273.951" y1="235.923" x2="272.685" y2="241.111" gradientUnits="userSpaceOnUse">
<stop stop-color="#B37CFF"/>
<stop offset="1" stop-color="#F895E7"/>
</linearGradient>
<linearGradient id="paint17_linear_11_14113" x1="245.933" y1="94.5127" x2="213.411" y2="227.825" gradientUnits="userSpaceOnUse">
<stop stop-color="#B37CFF"/>
<stop offset="1" stop-color="#F895E7"/>
</linearGradient>
<linearGradient id="paint18_linear_11_14113" x1="221.091" y1="74.3728" x2="219.27" y2="81.8358" gradientUnits="userSpaceOnUse">
<stop stop-color="#B37CFF"/>
<stop offset="1" stop-color="#F895E7"/>
</linearGradient>
<linearGradient id="paint19_linear_11_14113" x1="355.665" y1="126.269" x2="-62.1498" y2="244.769" gradientUnits="userSpaceOnUse">
<stop stop-color="#CB236D"/>
<stop offset="1" stop-color="#4C246D"/>
</linearGradient>
<linearGradient id="paint20_linear_11_14113" x1="148.445" y1="111.974" x2="228.47" y2="98.0939" gradientUnits="userSpaceOnUse">
<stop stop-color="#CB236D"/>
<stop offset="1" stop-color="#4C246D"/>
</linearGradient>
<linearGradient id="paint21_linear_11_14113" x1="203.794" y1="110.398" x2="216.382" y2="118.049" gradientUnits="userSpaceOnUse">
<stop stop-color="#2B3582"/>
<stop offset="1" stop-color="#150E42"/>
</linearGradient>
<linearGradient id="paint22_linear_11_14113" x1="215.596" y1="104.067" x2="180.095" y2="115.799" gradientUnits="userSpaceOnUse">
<stop stop-color="#CB236D"/>
<stop offset="1" stop-color="#4C246D"/>
</linearGradient>
<linearGradient id="paint23_linear_11_14113" x1="329.36" y1="214.407" x2="330.261" y2="290.238" gradientUnits="userSpaceOnUse">
<stop stop-color="#B37CFF"/>
<stop offset="1" stop-color="#F895E7"/>
</linearGradient>
<linearGradient id="paint24_linear_11_14113" x1="350.264" y1="293.688" x2="350.317" y2="298.117" gradientUnits="userSpaceOnUse">
<stop stop-color="#B37CFF"/>
<stop offset="1" stop-color="#F895E7"/>
</linearGradient>
<linearGradient id="paint25_linear_11_14113" x1="316.722" y1="317.078" x2="316.758" y2="320.119" gradientUnits="userSpaceOnUse">
<stop stop-color="#B37CFF"/>
<stop offset="1" stop-color="#F895E7"/>
</linearGradient>
<linearGradient id="paint26_linear_11_14113" x1="281.294" y1="243.071" x2="282.222" y2="321.178" gradientUnits="userSpaceOnUse">
<stop stop-color="#B37CFF"/>
<stop offset="1" stop-color="#F895E7"/>
</linearGradient>
<linearGradient id="paint27_linear_11_14113" x1="264.747" y1="235.481" x2="264.799" y2="239.853" gradientUnits="userSpaceOnUse">
<stop stop-color="#B37CFF"/>
<stop offset="1" stop-color="#F895E7"/>
</linearGradient>
<linearGradient id="paint28_linear_11_14113" x1="346.286" y1="245.055" x2="132.609" y2="369.453" gradientUnits="userSpaceOnUse">
<stop stop-color="#CB236D"/>
<stop offset="1" stop-color="#4C246D"/>
</linearGradient>
<linearGradient id="paint29_linear_11_14113" x1="288.327" y1="292.988" x2="359.293" y2="302.624" gradientUnits="userSpaceOnUse">
<stop stop-color="#F9B776"/>
<stop offset="1" stop-color="#F47960"/>
</linearGradient>
<linearGradient id="paint30_linear_11_14113" x1="420.882" y1="417.947" x2="407.029" y2="417.947" gradientUnits="userSpaceOnUse">
<stop stop-color="#2B3582"/>
<stop offset="1" stop-color="#150E42"/>
</linearGradient>
<linearGradient id="paint31_linear_11_14113" x1="419.477" y1="411.505" x2="413.858" y2="411.505" gradientUnits="userSpaceOnUse">
<stop stop-color="#F9B776"/>
<stop offset="1" stop-color="#F47960"/>
</linearGradient>
<linearGradient id="paint32_linear_11_14113" x1="391.422" y1="417.725" x2="369.687" y2="417.725" gradientUnits="userSpaceOnUse">
<stop stop-color="#2B3582"/>
<stop offset="1" stop-color="#150E42"/>
</linearGradient>
<linearGradient id="paint33_linear_11_14113" x1="391.094" y1="409.008" x2="385.505" y2="409.008" gradientUnits="userSpaceOnUse">
<stop stop-color="#F9B776"/>
<stop offset="1" stop-color="#F47960"/>
</linearGradient>
<linearGradient id="paint34_linear_11_14113" x1="422.968" y1="359.41" x2="384.878" y2="359.41" gradientUnits="userSpaceOnUse">
<stop stop-color="#CB236D"/>
<stop offset="1" stop-color="#4C246D"/>
</linearGradient>
<linearGradient id="paint35_linear_11_14113" x1="417.2" y1="258.588" x2="407.194" y2="369.329" gradientUnits="userSpaceOnUse">
<stop stop-color="#CB236D"/>
<stop offset="1" stop-color="#4C246D"/>
</linearGradient>
<linearGradient id="paint36_linear_11_14113" x1="359.869" y1="202.307" x2="371.252" y2="265.202" gradientUnits="userSpaceOnUse">
<stop stop-color="#53D8FF"/>
<stop offset="1" stop-color="#3840F7"/>
</linearGradient>
<linearGradient id="paint37_linear_11_14113" x1="353.71" y1="245.286" x2="332.946" y2="245.286" gradientUnits="userSpaceOnUse">
<stop stop-color="#F9B776"/>
<stop offset="1" stop-color="#F47960"/>
</linearGradient>
<linearGradient id="paint38_linear_11_14113" x1="371.607" y1="239.83" x2="382.99" y2="347.556" gradientUnits="userSpaceOnUse">
<stop stop-color="#53D8FF"/>
<stop offset="1" stop-color="#3840F7"/>
</linearGradient>
<linearGradient id="paint39_linear_11_14113" x1="288.742" y1="304.073" x2="359.705" y2="313.709" gradientUnits="userSpaceOnUse">
<stop stop-color="#F9B776"/>
<stop offset="1" stop-color="#F47960"/>
</linearGradient>
<linearGradient id="paint40_linear_11_14113" x1="357.168" y1="216.058" x2="400.671" y2="295.933" gradientUnits="userSpaceOnUse">
<stop stop-color="#F9B776"/>
<stop offset="1" stop-color="#F47960"/>
</linearGradient>
<linearGradient id="paint41_linear_11_14113" x1="370.83" y1="230.771" x2="371.868" y2="262.626" gradientUnits="userSpaceOnUse">
<stop stop-color="#F9B776"/>
<stop offset="1" stop-color="#F47960"/>
</linearGradient>
<linearGradient id="paint42_linear_11_14113" x1="379.278" y1="244.246" x2="360.528" y2="231.02" gradientUnits="userSpaceOnUse">
<stop stop-color="#2B3582"/>
<stop offset="1" stop-color="#150E42"/>
</linearGradient>
<linearGradient id="paint43_linear_11_14113" x1="382.205" y1="263.453" x2="378.73" y2="241.645" gradientUnits="userSpaceOnUse">
<stop stop-color="#F9B776"/>
<stop offset="1" stop-color="#F47960"/>
</linearGradient>
<clipPath id="clip0_11_14113">
<rect width="425" height="424" fill="white"/>
</clipPath>
</defs>
</svg>
