<svg width="13" height="14" viewBox="0 0 13 14" fill="none" xmlns="http://www.w3.org/2000/svg">
<path fill-rule="evenodd" clip-rule="evenodd" d="M6.5 0.5C6.77614 0.5 7 0.723858 7 1V8.79289L9.14645 6.64645C9.34171 6.45118 9.65829 6.45118 9.85355 6.64645C10.0488 6.84171 10.0488 7.15829 9.85355 7.35355L6.85355 10.3536C6.65829 10.5488 6.34171 10.5488 6.14645 10.3536L3.14645 7.35355C2.95118 7.15829 2.95118 6.84171 3.14645 6.64645C3.34171 6.45118 3.65829 6.45118 3.85355 6.64645L6 8.79289V1C6 0.723858 6.22386 0.5 6.5 0.5ZM0.5 9.5C0.776142 9.5 1 9.72386 1 10V11.5C1 12.0523 1.44772 12.5 2 12.5H11C11.5523 12.5 12 12.0523 12 11.5V10C12 9.72386 12.2239 9.5 12.5 9.5C12.7761 9.5 13 9.72386 13 10V11.5C13 12.6046 12.1046 13.5 11 13.5H2C0.895431 13.5 0 12.6046 0 11.5V10C0 9.72386 0.223858 9.5 0.5 9.5Z" fill="#F9F9F9"/>
</svg>
